<svg width="12" height="12" viewBox="0 0 12 12" fill="none" xmlns="http://www.w3.org/2000/svg">
<path d="M4.54796 6.64984C4.42179 6.64984 4.31595 6.60709 4.23045 6.52158C4.14524 6.43638 4.10264 6.33069 4.10264 6.20452C4.10264 6.07834 4.14524 5.9725 4.23045 5.887C4.31595 5.8018 4.42179 5.75919 4.54796 5.75919C4.67414 5.75919 4.77998 5.8018 4.86548 5.887C4.95068 5.9725 4.99328 6.07834 4.99328 6.20452C4.99328 6.33069 4.95068 6.43638 4.86548 6.52158C4.77998 6.60709 4.67414 6.64984 4.54796 6.64984ZM6.32925 6.64984C6.20308 6.64984 6.09739 6.60709 6.01218 6.52158C5.92668 6.43638 5.88393 6.33069 5.88393 6.20452C5.88393 6.07834 5.92668 5.9725 6.01218 5.887C6.09739 5.8018 6.20308 5.75919 6.32925 5.75919C6.45543 5.75919 6.56126 5.8018 6.64677 5.887C6.73197 5.9725 6.77457 6.07834 6.77457 6.20452C6.77457 6.33069 6.73197 6.43638 6.64677 6.52158C6.56126 6.60709 6.45543 6.64984 6.32925 6.64984ZM8.11054 6.64984C7.98437 6.64984 7.87868 6.60709 7.79347 6.52158C7.70797 6.43638 7.66522 6.33069 7.66522 6.20452C7.66522 6.07834 7.70797 5.9725 7.79347 5.887C7.87868 5.8018 7.98437 5.75919 8.11054 5.75919C8.23672 5.75919 8.34241 5.8018 8.42761 5.887C8.51311 5.9725 8.55586 6.07834 8.55586 6.20452C8.55586 6.33069 8.51311 6.43638 8.42761 6.52158C8.34241 6.60709 8.23672 6.64984 8.11054 6.64984ZM3.21199 10.2124C2.96707 10.2124 2.75732 10.1253 2.58275 9.95101C2.40848 9.77645 2.32135 9.5667 2.32135 9.32177V3.08726C2.32135 2.84233 2.40848 2.63273 2.58275 2.45846C2.75732 2.2839 2.96707 2.19661 3.21199 2.19661H3.65732V1.30597H4.54796V2.19661H8.11054V1.30597H9.00119V2.19661H9.44651C9.69144 2.19661 9.90118 2.2839 10.0757 2.45846C10.25 2.63273 10.3372 2.84233 10.3372 3.08726V9.32177C10.3372 9.5667 10.25 9.77645 10.0757 9.95101C9.90118 10.1253 9.69144 10.2124 9.44651 10.2124H3.21199ZM3.21199 9.32177H9.44651V4.86855H3.21199V9.32177ZM3.21199 3.9779H9.44651V3.08726H3.21199V3.9779Z" fill="#121212" fill-opacity="0.8"/>
</svg>
