<svg width="15" height="16" viewBox="0 0 15 16" fill="none" xmlns="http://www.w3.org/2000/svg">
<path d="M4.79309 2.00195H9.7807C11.6807 2.00195 13.2245 3.54574 13.2245 5.44578V10.4334C13.2245 11.3468 12.8617 12.2227 12.2159 12.8685C11.57 13.5144 10.6941 13.8772 9.7807 13.8772H4.79309C2.89305 13.8772 1.34927 12.3334 1.34927 10.4334V5.44578C1.34927 4.53242 1.7121 3.65647 2.35794 3.01063C3.00378 2.36478 3.87973 2.00195 4.79309 2.00195ZM4.67434 3.18948C4.10743 3.18948 3.56373 3.41468 3.16287 3.81555C2.762 4.21642 2.53679 4.76011 2.53679 5.32703V10.5521C2.53679 11.7337 3.49275 12.6897 4.67434 12.6897H9.89946C10.4664 12.6897 11.0101 12.4645 11.4109 12.0636C11.8118 11.6627 12.037 11.1191 12.037 10.5521V5.32703C12.037 4.14544 11.081 3.18948 9.89946 3.18948H4.67434ZM10.4042 4.08012C10.601 4.08012 10.7898 4.15832 10.929 4.29751C11.0682 4.4367 11.1464 4.62548 11.1464 4.82233C11.1464 5.01917 11.0682 5.20796 10.929 5.34715C10.7898 5.48634 10.601 5.56453 10.4042 5.56453C10.2073 5.56453 10.0185 5.48634 9.87934 5.34715C9.74015 5.20796 9.66195 5.01917 9.66195 4.82233C9.66195 4.62548 9.74015 4.4367 9.87934 4.29751C10.0185 4.15832 10.2073 4.08012 10.4042 4.08012ZM7.2869 4.97077C8.07428 4.97077 8.82941 5.28355 9.38617 5.84032C9.94293 6.39708 10.2557 7.15221 10.2557 7.93958C10.2557 8.72696 9.94293 9.48209 9.38617 10.0389C8.82941 10.5956 8.07428 10.9084 7.2869 10.9084C6.49952 10.9084 5.74439 10.5956 5.18763 10.0389C4.63087 9.48209 4.31808 8.72696 4.31808 7.93958C4.31808 7.15221 4.63087 6.39708 5.18763 5.84032C5.74439 5.28355 6.49952 4.97077 7.2869 4.97077ZM7.2869 6.1583C6.81447 6.1583 6.36139 6.34597 6.02734 6.68002C5.69328 7.01408 5.50561 7.46716 5.50561 7.93958C5.50561 8.41201 5.69328 8.86509 6.02734 9.19915C6.36139 9.5332 6.81447 9.72087 7.2869 9.72087C7.75933 9.72087 8.2124 9.5332 8.54646 9.19915C8.88052 8.86509 9.06819 8.41201 9.06819 7.93958C9.06819 7.46716 8.88052 7.01408 8.54646 6.68002C8.2124 6.34597 7.75933 6.1583 7.2869 6.1583Z" fill="white"/>
</svg>
