<svg width="16" height="16" viewBox="0 0 16 16" fill="none" xmlns="http://www.w3.org/2000/svg">
<path d="M14.0083 3.19537C13.4145 3.48631 12.8326 3.60447 12.227 3.78319C11.5614 3.03208 10.5745 2.99052 9.62629 3.34559C8.67805 3.70066 8.05698 4.56874 8.07063 5.56448V6.15825C6.14387 6.20753 4.4279 5.32995 3.32053 3.78319C3.32053 3.78319 0.837412 8.19664 5.69558 10.3146C4.58406 11.055 3.4755 11.5544 2.133 11.5021C4.09717 12.5727 6.23769 12.9408 8.09082 12.4029C10.2165 11.7853 11.9633 10.1923 12.6337 7.80594C12.8337 7.08017 12.933 6.33036 12.9288 5.57755C12.9276 5.4297 13.8254 3.93164 14.0083 3.19478V3.19537Z" stroke="white" stroke-width="0.890645" stroke-linecap="round" stroke-linejoin="round"/>
</svg>
