<svg width="15" height="16" viewBox="0 0 15 16" fill="none" xmlns="http://www.w3.org/2000/svg">
<path d="M10.7443 1.69589L10.7443 1.69591C10.8318 1.70738 10.9122 1.75032 10.9704 1.8167C11.0286 1.88308 11.0607 1.96836 11.0607 2.05664C11.0607 2.05665 11.0607 2.05667 11.0607 2.05668V4.10216C11.0607 4.19861 11.0224 4.29112 10.9542 4.35932C10.886 4.42752 10.7935 4.46584 10.697 4.46584H9.48633C9.1288 4.46584 8.9463 4.52667 8.84787 4.63597C8.74784 4.74704 8.71711 4.92613 8.71711 5.21546V6.31185H10.6174C10.6174 6.31185 10.6174 6.31185 10.6174 6.31185C10.6692 6.31183 10.7204 6.32285 10.7675 6.34419C10.8147 6.36553 10.8567 6.39669 10.8909 6.4356C10.925 6.4745 10.9505 6.52025 10.9656 6.56978C10.9806 6.61931 10.9849 6.67148 10.9782 6.72281M10.7443 1.69589L10.912 6.71412M10.7443 1.69589L10.7427 1.69571C10.1413 1.63192 9.53695 1.60088 8.93224 1.60271M10.7443 1.69589L8.93224 1.60271M10.9782 6.72281L10.912 6.71412M10.9782 6.72281L10.9782 6.72267L10.912 6.71412M10.9782 6.72281L10.6831 9.00866L10.6831 9.00879C10.6716 9.09634 10.6287 9.17672 10.5623 9.23494C10.4959 9.29315 10.4106 9.32523 10.3223 9.3252V9.2584M10.912 6.71412L10.6169 9.00011C10.6075 9.07158 10.5724 9.13719 10.5182 9.18472C10.4641 9.23224 10.3944 9.25843 10.3223 9.2584M10.3223 9.2584L10.3223 9.3252M10.3223 9.2584H8.71711V9.3252M10.3223 9.3252L8.93234 1.66951C6.93552 1.66951 5.69455 2.94135 5.69455 4.98865V6.31185H5.62776M10.3223 9.3252H8.71711M10.3223 9.3252L8.93224 1.60271M8.71711 9.3252H8.65031V13.8422C8.65031 13.921 8.61903 13.9965 8.56335 14.0522C8.50768 14.1079 8.43216 14.1391 8.35343 14.1391H5.99144C5.9127 14.1391 5.83718 14.1079 5.78151 14.0522C5.72583 13.9965 5.69455 13.921 5.69455 13.8422V9.3252H5.62776M8.71711 9.3252V13.8422C8.71711 13.9387 8.67879 14.0312 8.61059 14.0994C8.54238 14.1676 8.44988 14.2059 8.35343 14.2059H5.99144C5.89498 14.2059 5.80248 14.1676 5.73427 14.0994C5.66607 14.0312 5.62776 13.9387 5.62776 13.8422V9.3252M5.62776 9.3252V9.2584H4.01717C3.93843 9.2584 3.86292 9.22712 3.80725 9.17144C3.75157 9.11577 3.72029 9.04025 3.72029 8.96152V6.67553C3.72029 6.59679 3.75157 6.52128 3.80725 6.4656C3.86292 6.40992 3.93843 6.37865 4.01717 6.37865H5.62776V6.31185M5.62776 9.3252H4.01717C3.92072 9.3252 3.82822 9.28688 3.76001 9.21868C3.69181 9.15047 3.65349 9.05797 3.65349 8.96152V6.67553C3.65349 6.57907 3.69181 6.48657 3.76001 6.41837C3.82822 6.35016 3.92072 6.31185 4.01717 6.31185H5.62776M5.62776 6.31185V4.98865C5.62776 3.95148 5.94233 3.10359 6.51683 2.5147C7.09149 1.92563 7.9194 1.60273 8.93224 1.60271M8.35283 7.0398H8.3527C8.25637 7.03961 8.16405 7.00121 8.09601 6.93303C8.02796 6.86484 7.98974 6.77245 7.98975 6.67612V5.21546C7.98975 4.90999 8.02657 4.53944 8.23645 4.24473C8.44963 3.94537 8.83047 3.73849 9.48569 3.73848L8.35283 7.0398ZM8.35283 7.0398H10.2042L10.0024 8.59843H8.35343C8.25697 8.59843 8.16447 8.63675 8.09627 8.70495C8.02806 8.77315 7.98975 8.86566 7.98975 8.96211V13.478H6.35512V8.96211C6.35512 8.86566 6.3168 8.77315 6.2486 8.70495C6.18039 8.63675 6.08789 8.59843 5.99144 8.59843H4.38145V7.0398H5.99144C6.08789 7.0398 6.18039 7.00148 6.2486 6.93328C6.3168 6.86508 6.35512 6.77257 6.35512 6.67612V4.98865C6.35512 4.14816 6.59838 3.48516 7.03749 3.03255C7.47636 2.58019 8.11853 2.33007 8.93234 2.33007C9.4934 2.33007 10.0033 2.35883 10.3333 2.38583V3.73793L9.48573 3.73848L8.35283 7.0398ZM8.71711 6.37865H8.65031V6.31185L8.71711 6.37865Z" fill="white" stroke="white" stroke-width="0.133597"/>
</svg>
